#!OML:ASF F:\VICON\USERDATA\INSTALL\rory3\rory3.ASF
:FULLY-SPECIFIED
:DEGREES
146
root 7.8082 18.0916 -0.325072 -3.86295 -30.7248 8.15398
lowerback 10.0472 0.210749 -5.56193
upperback 0.509847 -0.383757 -0.361267
thorax -5.07703 -0.0694731 2.81019
lowerneck -18.7134 -7.55421 -14.267
upperneck 27.8814 -10.161 11.6455
head 14.0294 -4.5427 5.24424
rclavicle -6.4605e-015 -1.19271e-014
rhumerus -38.3735 -24.6218 -74.3649
rradius 23.8154
rwrist 13.2329
rhand -14.0898 8.89668
rfingers 7.12502
rthumb 12.0425 -20.7368
lclavicle -6.4605e-015 -1.19271e-014
lhumerus -30.503 7.8055 75.9442
lradius 36.795
lwrist -3.03259
lhand -23.7119 22.454
lfingers 7.12502
lthumb 2.75563 52.416
rfemur -20.9082 -8.31018 22.4837
rtibia 23.486
rfoot -2.84591 -9.81781
rtoes 23.8681
lfemur 12.9838 1.73053 -22.8064
ltibia 22.8976
lfoot 10.9779 -1.07582
ltoes -32.7247
147
root 7.70146 18.1054 -0.218036 -3.85526 -31.2392 7.77803
lowerback 10.0156 0.224155 -5.22523
upperback 0.610184 -0.319452 -0.303174
thorax -4.96037 -0.0499124 2.67198
lowerneck -18.8775 -7.5495 -14.1131
upperneck 27.9381 -10.1911 11.6436
head 14.084 -4.53477 5.21071
rclavicle 2.13694e-015 3.97569e-015
rhumerus -38.229 -24.5157 -74.5459
rradius 23.7771
rwrist 13.0903
rhand -14.0546 8.97352
rfingers 7.12502
rthumb 12.0765 -20.658
lclavicle 2.13694e-015 3.97569e-015
lhumerus -30.7933 7.92995 75.954
lradius 36.9498
lwrist -2.78171
lhand -23.4914 22.9213
lfingers 7.12502
lthumb 2.96853 52.8804
rfemur -20.1062 -8.50566 22.9905
rtibia 23.311
rfoot -3.37611 -9.17373
rtoes 24.1492
lfemur 11.94 1.85574 -22.2434
ltibia 25.3851
lfoot 12.9557 -2.14982
ltoes -32.104
148
root 7.59462 18.1194 -0.109013 -3.82002 -31.7757 7.39712
lowerback 9.90612 0.281816 -4.87126
upperback 0.704452 -0.189974 -0.230608
thorax -4.81127 0.0015749 2.52978
lowerneck -18.9496 -7.57602 -13.9583
upperneck 27.9294 -10.2425 11.5517
head 14.0874 -4.5492 5.1331
rclavicle 8.75149e-014 -1.11319e-014
rhumerus -38.0708 -24.2089 -74.7838
rradius 23.7827
rwrist 12.7701
rhand -14.0971 8.85993
rfingers 7.12502
rthumb 12.0355 -20.774
lclavicle 8.75149e-014 -1.11319e-014
lhumerus -31.0704 7.75937 76.1438
lradius 37.1741
lwrist -2.18311
lhand -21.9374 25.7037
lfingers 7.12502
lthumb 4.46922 55.6366
rfemur -19.2674 -8.86308 23.5259
rtibia 23.0077
rfoot -3.84218 -8.28341
rtoes 24.038
lfemur 10.8479 1.94958 -21.6642
ltibia 27.8526
lfoot 14.7503 -3.18939
ltoes -29.4836
149
root 7.48792 18.1341 -8.60078e-005 -3.7836 -32.2575 7.04032
lowerback 9.79223 0.363359 -4.56181
upperback 0.764738 -0.0350486 -0.145915
thorax -4.69633 0.0688137 2.42229
lowerneck -18.8338 -7.60165 -13.7905
upperneck 27.8429 -10.2954 11.4027
head 14.0115 -4.57611 5.02882
rclavicle -5.25785e-014 1.59028e-015
rhumerus -37.9882 -23.9779 -74.9142
rradius 23.825
rwrist 12.4383
rhand -14.0891 8.75876
rfingers 7.12502
rthumb 12.0432 -20.8747
lclavicle -5.25785e-014 1.59028e-015
lhumerus -31.3337 7.24963 76.46
lradius 37.22
lwrist -1.5498
lhand -20.7561 27.4616
lfingers 7.12502
lthumb 5.60985 57.3673
rfemur -18.3758 -9.09355 23.998
rtibia 22.6169
rfoot -4.26662 -7.58673
rtoes 23.2917
lfemur 9.71832 1.94512 -21.1304
ltibia 30.3067
lfoot 16.5072 -4.25788
ltoes -26.2529
150
root 7.38238 18.1499 0.106525 -3.69465 -32.7094 6.65427
lowerback 9.7552 0.451 -4.20904
upperback 0.744894 0.125266 -0.076492
thorax -4.70757 0.14221 2.27412
lowerneck -18.7091 -7.59954 -13.5969
upperneck 27.8403 -10.3213 11.2354
head 13.9623 -4.5923 4.92208
rclavicle 5.31749e-014 -2.50469e-014
rhumerus -38.0228 -23.5708 -75.1057
rradius 24.0017
rwrist 11.9151
rhand -14.0076 8.94208
rfingers 7.12502
rthumb 12.1217 -20.6868
lclavicle 5.31749e-014 -2.50469e-014
lhumerus -31.7009 6.62675 76.8147
lradius 37.1935
lwrist -1.07934
lhand -20.599 27.4171
lfingers 7.12502
lthumb 5.76148 57.3187
rfemur -17.4884 -9.18166 24.46
rtibia 22.1565
rfoot -4.58136 -7.09976
rtoes 22.6551
lfemur 8.55117 1.8315 -20.6132
ltibia 32.6951
lfoot 18.3103 -5.10488
ltoes -23.098
151
root 7.27844 18.1624 0.21147 -3.65243 -33.1735 6.26475
lowerback 9.77241 0.491752 -3.88163
upperback 0.76884 0.220084 0.0263512
thorax -4.69767 0.182848 2.18412
lowerneck -18.7646 -7.58305 -13.5655
upperneck 27.9611 -10.306 11.203
head 14.0192 -4.58597 4.90992
rclavicle 1.98785e-015 -8.34896e-015
rhumerus -37.8809 -23.0697 -75.3326
rradius 24.1263
rwrist 11.6532
rhand -13.8652 9.08686
rfingers 7.12502
rthumb 12.2591 -20.5338
lclavicle 1.98785e-015 -8.34896e-015
lhumerus -32.0967 6.44917 77.0811
lradius 37.1833
lwrist -1.22386
lhand -20.493 27.4108
lfingers 7.12502
lthumb 5.86387 57.3096
rfemur -16.4912 -9.22254 24.9072
rtibia 21.5829
rfoot -4.78964 -6.61126
rtoes 22.4148
lfemur 7.44472 1.73673 -20.0896
ltibia 35.0445
lfoot 20.1762 -5.84597
ltoes -19.5301
152
root 7.17282 18.1741 0.314128 -3.6098 -33.6557 5.84109
lowerback 9.81147 0.52817 -3.57032
upperback 0.814548 0.307925 0.154323
thorax -4.67633 0.220087 2.13028
lowerneck -18.7926 -7.58312 -13.6445
upperneck 28.0089 -10.3209 11.3115
head 14.0617 -4.58779 4.96745
rclavicle -4.21423e-014 7.95139e-015
rhumerus -37.7184 -22.815 -75.4092
rradius 24.21
rwrist 11.7825
rhand -13.6909 9.10764
rfingers 7.12502
rthumb 12.4271 -20.5029
lclavicle -4.21423e-014 7.95139e-015
lhumerus -32.4135 6.26159 77.3502
lradius 37.1251
lwrist -1.62128
lhand -20.2773 27.4234
lfingers 7.12502
lthumb 6.07209 57.3164
rfemur -15.4236 -9.18802 25.3914
rtibia 20.9307
rfoot -4.93289 -6.17832
rtoes 22.4548
lfemur 6.34903 1.65713 -19.5321
ltibia 37.3653
lfoot 22.0265 -6.49411
ltoes -14.7978
